<svg width="13" height="13" viewBox="0 0 13 13" fill="none" xmlns="http://www.w3.org/2000/svg">
    <path d="M12.4312 0H0.56875C0.24375 0 0 0.24375 0 0.56875V12.5125C0 12.7562 0.24375 13 0.56875 13H6.5V8.9375H4.875V6.5H6.5V4.875C6.5 3.16875 7.475 2.4375 8.9375 2.4375C9.66875 2.4375 10.4 2.4375 10.5625 2.4375V4.875H9.75C9.2625 4.875 8.9375 5.2 8.9375 5.6875V6.5H11.05L10.5625 8.9375H8.9375V13H12.4312C12.7562 13 13 12.7562 13 12.4312V0.56875C13 0.24375 12.7562 0 12.4312 0Z" fill="#232323"/>
</svg>
