<svg width="13" height="11" viewBox="0 0 13 11" fill="none" xmlns="http://www.w3.org/2000/svg">
    <path d="M13 1.26923C12.5125 1.52308 12.025 1.60769 11.4563 1.69231C12.025 1.35385 12.4312 0.846154 12.5938 0.169231C12.1062 0.507692 11.5375 0.676923 10.8875 0.846154C10.4 0.338462 9.66875 0 8.9375 0C7.55625 0 6.3375 1.26923 6.3375 2.79231C6.3375 3.04615 6.3375 3.21538 6.41875 3.38462C4.225 3.3 2.19375 2.2 0.89375 0.507692C0.65 0.930769 0.56875 1.35385 0.56875 1.94615C0.56875 2.87692 1.05625 3.72308 1.7875 4.23077C1.38125 4.23077 0.975 4.06154 0.56875 3.89231C0.56875 5.24615 1.4625 6.34615 2.68125 6.6C2.4375 6.68462 2.19375 6.68462 1.95 6.68462C1.7875 6.68462 1.625 6.68462 1.4625 6.6C1.7875 7.7 2.7625 8.54615 3.98125 8.54615C3.0875 9.30769 1.95 9.73077 0.65 9.73077C0.40625 9.73077 0.24375 9.73077 0 9.73077C1.21875 10.4923 2.6 11 4.0625 11C8.9375 11 11.6187 6.76923 11.6187 3.13077C11.6187 3.04615 11.6187 2.87692 11.6187 2.79231C12.1875 2.36923 12.675 1.86154 13 1.26923Z" fill="#232323"/>
</svg>
