<svg width="35" height="33" viewBox="0 0 35 33" fill="none" xmlns="http://www.w3.org/2000/svg">
    <path d="M17.5 33C27.165 33 35 25.6127 35 16.5C35 7.3873 27.165 0 17.5 0C7.83502 0 0 7.3873 0 16.5C0 25.6127 7.83502 33 17.5 33Z" fill="#F0C045"/>
    <path d="M27.8566 11.1383C27.1602 11.4802 26.4637 11.5942 25.6512 11.7081C26.4637 11.2523 27.0441 10.5684 27.2762 9.65665C26.5798 10.1125 25.7673 10.3405 24.8387 10.5684C24.1423 9.8846 23.0977 9.42871 22.053 9.42871C20.0798 9.42871 18.3387 11.1383 18.3387 13.1898C18.3387 13.5317 18.3387 13.7596 18.4548 13.9876C15.3209 13.8736 12.4191 12.392 10.5619 10.1125C10.2137 10.6824 10.0977 11.2523 10.0977 12.0501C10.0977 13.3038 10.7941 14.4435 11.8387 15.1273C11.2584 15.1273 10.678 14.8994 10.0977 14.6714C10.0977 16.495 11.3744 17.9766 13.1155 18.3185C12.7673 18.4325 12.4191 18.4325 12.0709 18.4325C11.8387 18.4325 11.6066 18.4325 11.3744 18.3185C11.8387 19.8001 13.2316 20.9399 14.9727 20.9399C13.6959 21.9656 12.0709 22.5355 10.2137 22.5355C9.86551 22.5355 9.63337 22.5355 9.28516 22.5355C11.0262 23.5612 12.9994 24.245 15.0887 24.245C22.053 24.245 25.8834 18.5465 25.8834 13.6457C25.8834 13.5317 25.8834 13.3038 25.8834 13.1898C26.6959 12.6199 27.3923 11.9361 27.8566 11.1383Z" fill="#232323"/>
</svg>
