<svg width="35" height="33" viewBox="0 0 35 33" fill="none" xmlns="http://www.w3.org/2000/svg">
    <path d="M17.5 33C27.165 33 35 25.6127 35 16.5C35 7.3873 27.165 0 17.5 0C7.83502 0 0 7.3873 0 16.5C0 25.6127 7.83502 33 17.5 33Z" fill="#F0C045"/>
    <path d="M26.3312 8.08154H9.38477C8.92048 8.08154 8.57227 8.40986 8.57227 8.84761V24.9351C8.57227 25.2634 8.92048 25.5917 9.38477 25.5917H17.858V20.1198H15.5366V16.8366H17.858V14.6479C17.858 12.3497 19.2508 11.3647 21.3401 11.3647C22.3848 11.3647 23.4294 11.3647 23.6616 11.3647V14.6479H22.5008C21.8044 14.6479 21.3401 15.0856 21.3401 15.7423V16.8366H24.358L23.6616 20.1198H21.3401V25.5917H26.3312C26.7955 25.5917 27.1437 25.2634 27.1437 24.8257V8.84761C27.1437 8.40986 26.7955 8.08154 26.3312 8.08154Z" fill="#232323"/>
</svg>
