<svg width="35" height="33" viewBox="0 0 35 33" fill="none" xmlns="http://www.w3.org/2000/svg">
    <path d="M17.5 33C27.165 33 35 25.6127 35 16.5C35 7.3873 27.165 0 17.5 0C7.83502 0 0 7.3873 0 16.5C0 25.6127 7.83502 33 17.5 33Z" fill="#F0C045"/>
    <path fill-rule="evenodd" clip-rule="evenodd" d="M8.66488 8.08154H25.506C25.9674 8.08154 26.3135 8.40986 26.4289 8.84761V24.8257C26.4289 25.2634 26.0828 25.5917 25.6214 25.5917H8.66488C8.20347 25.5917 7.85742 25.2634 7.85742 24.9351V8.84761C7.85742 8.40986 8.20347 8.08154 8.66488 8.08154ZM10.6258 22.9652H13.2789H13.3942V14.6479H10.6258V22.9652ZM12.01 13.5535C11.0872 13.5535 10.3951 12.7874 10.3951 12.0213C10.3951 11.1458 11.0872 10.4892 12.01 10.4892C12.9328 10.4892 13.6249 11.1458 13.6249 12.0213C13.5096 12.7874 12.8175 13.5535 12.01 13.5535ZM20.7767 22.9652H23.4297V18.3688C23.4297 16.18 22.9683 14.429 20.1999 14.429C18.9311 14.429 18.0083 15.0856 17.6622 15.7423V14.6479H15.0092V23.0747H17.7776V18.916C17.7776 17.8216 18.0083 16.7272 19.3925 16.7272C20.7767 16.7272 20.7767 17.931 20.7767 18.916V22.9652Z" fill="#232323"/>
</svg>
