<svg width="31" height="30" viewBox="0 0 31 30" fill="none" xmlns="http://www.w3.org/2000/svg">
    <path d="M14.7309 0.0291691H15.4359C18.5985 0.0291691 21.7562 1.23967 24.9089 3.66067C27.249 5.99417 28.6786 8.09431 29.1975 9.96111C29.55 10.7389 29.785 11.6286 29.9025 12.63C30.02 13.6218 30.0787 14.2684 30.0787 14.5698V15.3573V15.9844C29.8437 18.1332 29.3688 19.9368 28.6541 21.3952C27.0777 24.5649 24.669 26.9567 21.4281 28.5707C19.1076 29.5236 17.0221 30 15.1715 30H14.9953C11.255 30 7.833 28.6388 4.72917 25.9164C2.78071 23.9037 1.5617 22.1293 1.07214 20.5931C0.533623 19.3972 0.176242 17.8901 0 16.0719V14.2052C0 11.1522 1.27776 8.05056 3.83327 4.90034C7.18188 1.65289 10.8144 0.0291691 14.7309 0.0291691ZM9.01774 9.5965V10.1361C9.18419 11.0209 9.74719 11.4633 10.7067 11.4633C11.49 11.4633 12.0285 11.0209 12.3223 10.1361V10.0486C12.3223 9.13466 11.7544 8.5999 10.6186 8.44434C9.92343 8.44434 9.38981 8.82839 9.01774 9.5965ZM16.699 13.5051H16.508V12.6155H13.6588V21.0452C13.6784 21.1619 13.7371 21.2202 13.835 21.2202H16.3318C16.4493 21.2202 16.508 21.1619 16.508 21.0452V16.5241C16.6549 15.2795 17.1641 14.6573 18.0355 14.6573C19.044 14.6573 19.5482 15.2795 19.5482 16.5241V21.0452C19.5678 21.1619 19.6266 21.2202 19.7245 21.2202H22.4122V15.6344C22.4122 14.633 21.9324 13.7141 20.9729 12.878C20.2483 12.5863 19.8028 12.4404 19.6363 12.4404H18.7404C18.0453 12.4696 17.3648 12.8245 16.699 13.5051ZM9.19398 12.7905V21.0452C9.21356 21.1619 9.27231 21.2202 9.37022 21.2202H11.867C11.9845 21.2202 12.0432 21.1619 12.0432 21.0452V12.9655L11.867 12.6155H9.37022C9.25273 12.6349 9.19398 12.6932 9.19398 12.7905Z" fill="#232323"/>
</svg>
