<svg width="31" height="30" viewBox="0 0 31 30" fill="none" xmlns="http://www.w3.org/2000/svg">
    <path d="M15.6375 0H16.2544C19.6226 0 22.8733 1.2737 26.0065 3.8211C29.3355 7.1755 31 10.6952 31 14.3802V15.8094C31 17.9485 30.1677 20.4618 28.5032 23.3495C26.4471 26.2664 23.6468 28.279 20.1023 29.3875C18.4574 29.7958 17.0866 30 15.99 30H15.9019C11.7994 30 8.1325 28.4054 4.9014 25.2163C2.1599 22.105 0.789101 18.702 0.789101 15.0073C0.789101 11.0598 2.341 7.44774 5.4448 4.17112C8.676 1.39037 12.0735 0 15.6375 0ZM16.5334 12.4259V13.1405C16.5334 13.2572 16.4698 13.3155 16.3425 13.3155C14.4724 13.0627 12.8666 12.4113 11.5252 11.3612L10.2768 10.209H10.174C10.174 10.3063 10.0565 10.5445 9.8215 10.9237V11.9883C9.8999 12.5912 10.316 13.2718 11.0699 14.0301V14.1176C10.6587 14.1176 10.2426 14.001 9.8215 13.7676V13.8551C9.8215 14.9927 10.5657 15.9699 12.0539 16.7866L11.8777 16.8741H11.4371L10.9818 16.7866V16.9616C11.6672 18.2061 12.5337 18.8284 13.5814 18.8284V19.0909C12.4064 19.8007 11.2413 20.1556 10.0859 20.1556H9.5572V20.3306C11.2413 21.0987 12.7002 21.4827 13.9339 21.4827C16.5187 21.4827 18.7218 20.4473 20.543 18.3763C21.855 16.5678 22.511 14.8517 22.511 13.228V12.6155C23.4607 11.7112 23.9405 11.2056 23.9503 11.0987V11.0112C23.6076 11.1862 23.1278 11.3369 22.511 11.4633L22.4229 11.2737C22.981 10.9528 23.3971 10.5105 23.6713 9.94652V9.85902H23.5831C22.7019 10.2771 22.1683 10.4861 21.9823 10.4861H21.7179C21.0619 9.95139 20.4646 9.65484 19.9261 9.5965H19.2064C18.2077 9.5965 17.4049 10.1556 16.7978 11.2737C16.6216 11.5654 16.5334 11.9494 16.5334 12.4259Z" fill="#232323"/>
</svg>
