<svg width="13" height="13" viewBox="0 0 13 13" fill="none" xmlns="http://www.w3.org/2000/svg">
    <path fill-rule="evenodd" clip-rule="evenodd" d="M0.565217 0H12.354C12.677 0 12.9193 0.24375 13 0.56875V12.4312C13 12.7562 12.7578 13 12.4348 13H0.565217C0.242236 13 0 12.7562 0 12.5125V0.56875C0 0.24375 0.242236 0 0.565217 0ZM1.93789 11.05H3.79503H3.87578V4.875H1.93789V11.05ZM2.90683 4.0625C2.26087 4.0625 1.7764 3.49375 1.7764 2.925C1.7764 2.275 2.26087 1.7875 2.90683 1.7875C3.55279 1.7875 4.03727 2.275 4.03727 2.925C3.95652 3.49375 3.47205 4.0625 2.90683 4.0625ZM9.04348 11.05H10.9006V7.6375C10.9006 6.0125 10.5776 4.7125 8.63975 4.7125C7.75155 4.7125 7.10559 5.2 6.86335 5.6875V4.875H5.00621V11.1313H6.9441V8.04375C6.9441 7.23125 7.10559 6.41875 8.07453 6.41875C9.04348 6.41875 9.04348 7.3125 9.04348 8.04375V11.05Z" fill="#232323"/>
</svg>
