<svg width="35" height="33" viewBox="0 0 35 33" fill="none" xmlns="http://www.w3.org/2000/svg">
    <path d="M17.5 33C27.165 33 35 25.6127 35 16.5C35 7.3873 27.165 0 17.5 0C7.83502 0 0 7.3873 0 16.5C0 25.6127 7.83502 33 17.5 33Z" fill="#F0C045"/>
    <path d="M21.9541 13.3918C22.5695 13.3918 23.0684 12.9214 23.0684 12.3411C23.0684 11.7609 22.5695 11.2905 21.9541 11.2905C21.3387 11.2905 20.8398 11.7609 20.8398 12.3411C20.8398 12.9214 21.3387 13.3918 21.9541 13.3918Z" fill="#232323"/>
    <path fill-rule="evenodd" clip-rule="evenodd" d="M12.5 16.8365C12.5 19.2508 14.5823 21.2141 17.1429 21.2141C19.7034 21.2141 21.7857 19.2508 21.7857 16.8365C21.7857 14.4223 19.7034 12.459 17.1429 12.459C14.5823 12.459 12.5 14.4223 12.5 16.8365ZM14.8214 16.8365C14.8214 15.6294 15.8626 14.6478 17.1429 14.6478C18.4231 14.6478 19.4643 15.6294 19.4643 16.8365C19.4643 18.0436 18.4231 19.0253 17.1429 19.0253C15.8626 19.0253 14.8214 18.0436 14.8214 16.8365Z" fill="#232323"/>
    <path fill-rule="evenodd" clip-rule="evenodd" d="M12.5003 25.5917H21.786C24.1724 25.5917 26.4289 23.4643 26.4289 21.2142V12.4591C26.4289 10.209 24.1724 8.08154 21.786 8.08154H12.5003C10.1139 8.08154 7.85742 10.209 7.85742 12.4591V21.2142C7.85742 23.4643 10.1139 25.5917 12.5003 25.5917ZM10.1789 12.4591C10.1789 11.4358 11.415 10.2703 12.5003 10.2703H21.786C22.8713 10.2703 24.1074 11.4358 24.1074 12.4591V21.2142C24.1074 22.2374 22.8713 23.403 21.786 23.403H12.5003C11.3941 23.403 10.1789 22.2571 10.1789 21.2142V12.4591Z" fill="#232323"/>
</svg>
